<?xml version="1.0" encoding="iso-8859-1"?>
<!-- Uploaded to: SVG Repo, www.svgrepo.com, Generator: SVG Repo Mixer Tools -->
<svg fill="#000000" height="800px" width="800px" version="1.1" id="Layer_1" xmlns="http://www.w3.org/2000/svg" xmlns:xlink="http://www.w3.org/1999/xlink" 
	 viewBox="0 0 512.001 512.001" xml:space="preserve">
<g>
	<g>
		<path d="M480.58,256l29.658-59.316c2.588-5.175,2.312-11.322-0.73-16.244c-3.044-4.922-8.418-7.918-14.204-7.918H380.877
			C353.889,132.281,307.988,105.74,256,105.74s-97.889,26.542-124.877,66.783H16.696c-5.786,0-11.159,2.996-14.202,7.918
			c-3.042,4.922-3.318,11.068-0.73,16.244L31.421,256L1.763,315.317c-2.588,5.175-2.312,11.322,0.73,16.244
			c3.043,4.922,8.417,7.918,14.202,7.918h114.428c26.988,40.241,72.89,66.783,124.877,66.783s97.889-26.542,124.877-66.783h114.428
			c5.786,0,11.159-2.996,14.202-7.918c3.042-4.922,3.318-11.068,0.73-16.244L480.58,256z M105.784,259.478
			c0.016,0.658,0.041,1.313,0.065,1.969c0.016,0.416,0.029,0.833,0.048,1.248c0.668,15.151,3.59,29.723,8.438,43.393H43.71
			l21.31-42.621c2.351-4.7,2.351-10.232,0-14.933l-21.31-42.621h70.624c-4.847,13.67-7.77,28.244-8.438,43.393
			c-0.019,0.415-0.032,0.831-0.048,1.248c-0.023,0.656-0.05,1.311-0.065,1.969c-0.028,1.158-0.045,2.316-0.045,3.477
			C105.739,257.161,105.756,258.32,105.784,259.478z M372.808,259.63c-0.004,0.129-0.01,0.258-0.015,0.387
			c-0.68,18.764-6.127,37.032-16.225,54.362c-0.682,1.171-1.202,2.405-1.577,3.673C334.292,350.954,297.66,372.87,256,372.87
			s-78.293-21.916-98.992-54.819c-0.375-1.268-0.895-2.502-1.577-3.673c-10.098-17.33-15.545-35.6-16.225-54.362
			c-0.004-0.129-0.011-0.258-0.014-0.387c-0.039-1.208-0.061-2.418-0.061-3.629c0-1.211,0.022-2.421,0.061-3.629
			c0.004-0.129,0.01-0.258,0.014-0.387c0.68-18.764,6.127-37.032,16.225-54.362c0.682-1.171,1.202-2.405,1.577-3.673
			c20.699-32.903,57.332-54.818,98.992-54.818s78.293,21.916,98.992,54.82c0.375,1.268,0.895,2.502,1.577,3.673
			c10.098,17.33,15.545,35.6,16.225,54.362c0.004,0.129,0.011,0.258,0.015,0.387c0.039,1.208,0.061,2.416,0.061,3.628
			C372.869,257.214,372.847,258.422,372.808,259.63z M446.98,263.467l21.309,42.621h-70.624c4.847-13.67,7.77-28.243,8.438-43.393
			c0.019-0.415,0.032-0.831,0.048-1.248c0.023-0.656,0.05-1.311,0.065-1.969c0.028-1.158,0.045-2.316,0.045-3.477
			c0-1.161-0.017-2.32-0.045-3.477c-0.016-0.658-0.041-1.313-0.065-1.969c-0.016-0.416-0.029-0.833-0.048-1.248
			c-0.668-15.151-3.59-29.723-8.438-43.393h70.624l-21.31,42.621C444.63,253.234,444.63,258.766,446.98,263.467z"/>
	</g>
</g>
<g>
	<g>
		<path d="M343.279,227.631c-1.965-6.043-7.19-10.447-13.478-11.36l-40.649-5.902l-18.179-36.834
			c-2.813-5.699-8.616-9.306-14.972-9.306c-6.355,0-12.159,3.607-14.972,9.306l-18.179,36.834l-40.649,5.902
			c-6.288,0.913-11.514,5.317-13.478,11.36c-1.966,6.043-0.329,12.678,4.22,17.114l29.416,28.689l-6.941,40.484
			c-1.074,6.263,1.501,12.594,6.644,16.328c5.14,3.735,11.955,4.227,17.583,1.27L256,312.396l36.36,19.12
			c2.443,1.284,5.111,1.919,7.768,1.919c3.462,0,6.906-1.075,9.814-3.188c5.142-3.734,7.718-10.065,6.644-16.328l-6.941-40.484
			l29.416-28.689C343.609,240.309,345.245,233.674,343.279,227.631z M280.048,255.656c-3.931,3.836-5.727,9.36-4.798,14.773
			l2.707,15.785l-14.187-7.461c-2.433-1.279-5.101-1.919-7.77-1.919c-2.669,0-5.338,0.64-7.77,1.919l-14.187,7.461l2.707-15.785
			c0.928-5.414-0.866-10.939-4.798-14.773l-11.483-11.201l15.866-2.304c5.438-0.789,10.14-4.205,12.573-9.134L256,218.647
			l7.093,14.373c2.433,4.929,7.135,8.343,12.573,9.134l15.866,2.304L280.048,255.656z"/>
	</g>
</g>
</svg>